:FULLY-SPECIFIED
:FORCE-ALL-JOINTS-BE-3DOF
:DEGREES
501
root 10.6147 17.0115 35.3368 6.38077 4.49469 3.42448
lfemur 22.5013 1.64172 -27.0603
ltibia 3.5091 0 0
lfoot -11.9964 5.07069 0
ltoes -18.2524 0 0
rfemur -44.7109 2.72411 19.9555
rtibia 43.3964 0 0
rfoot -25.7541 -13.8714 0
rtoes -27.6417 0 0
lowerback -7.15322 -4.99132 -4.29003
upperback -0.20898 -6.41791 2.26532
thorax 4.46411 -3.29371 4.08105
lowerneck -26.6999 -3.10476 -10.9117
upperneck 25.6264 -3.60904 11.7014
head 13.261 -1.05609 5.67357
lclavicle 1.87852e-14 1.33143e-14 0
lhumerus -25.7782 -22.0317 101.509
lradius 32.6892 0 0
lwrist 3.80949 0 0
lhand -10.8923 -27.2582 0
lfingers 7.7967 0 0
lthumb 17.5388 4.86302 0
rclavicle 1.87852e-14 1.33143e-14 0
rhumerus -53.8704 2.31867 -88.2134
rradius 30.0183 0 0
rwrist -12.175 0 0
rhand -31.759 -25.6967 0
rfingers 7.7967 0 0
rthumb -2.59774 -58.4872 0
502
root 10.5935 16.9922 35.433 6.35478 4.48618 3.40601
lfemur 22.9194 1.59602 -26.776
ltibia 3.08374 0 0
lfoot -11.8162 5.04304 0
ltoes -18.4464 0 0
rfemur -44.5968 2.77062 19.8173
rtibia 42.6855 0 0
rfoot -25.6751 -13.835 0
rtoes -27.5475 0 0
lowerback -7.09341 -4.98606 -4.26614
upperback -0.223201 -6.41261 2.25859
thorax 4.4164 -3.29014 4.06136
lowerneck -26.5082 -3.06905 -10.8137
upperneck 25.4131 -3.56665 11.61
head 13.1541 -1.03975 5.62941
lclavicle 1.88349e-14 1.33747e-14 0
lhumerus -25.6919 -21.8954 100.79
lradius 32.5391 0 0
lwrist 3.84728 0 0
lhand -10.7557 -27.0627 0
lfingers 7.73412 0 0
lthumb 17.4453 4.79727 0
rclavicle 1.88349e-14 1.33747e-14 0
rhumerus -53.5443 2.1676 -87.397
rradius 29.6192 0 0
rwrist -11.998 0 0
rhand -31.4745 -25.4023 0
rfingers 7.73412 0 0
rthumb -2.5483 -57.9301 0
503
root 10.5714 16.9723 35.5212 6.32662 4.47576 3.38655
lfemur 23.3098 1.55129 -26.4892
ltibia 2.67333 0 0
lfoot -11.6372 5.01394 0
ltoes -18.6237 0 0
rfemur -44.4647 2.81393 19.6745
rtibia 41.9808 0 0
rfoot -25.5863 -13.793 0
rtoes -27.4431 0 0
lowerback -7.03237 -4.9785 -4.24105
upperback -0.236758 -6.40431 2.25099
thorax 4.36834 -3.28506 4.0404
lowerneck -26.3106 -3.03318 -10.714
upperneck 25.1954 -3.52412 11.5163
head 13.0447 -1.02352 5.58414
lclavicle 1.88732e-14 1.3426e-14 0
lhumerus -25.596 -21.7534 100.047
lradius 32.3785 0 0
lwrist 3.88168 0 0
lhand -10.6191 -26.8612 0
lfingers 7.67009 0 0
lthumb 17.3468 4.73166 0
rclavicle 1.88732e-14 1.3426e-14 0
rhumerus -53.2041 2.0213 -86.5684
rradius 29.2208 0 0
rwrist -11.8218 0 0
rhand -31.1853 -25.1066 0
rfingers 7.67009 0 0
rthumb -2.4995 -57.3655 0
504
root 10.5483 16.952 35.6009 6.29638 4.46347 3.36616
lfemur 23.6722 1.50762 -26.2006
ltibia 2.27847 0 0
lfoot -11.4595 4.98346 0
ltoes -18.784 0 0
rfemur -44.3154 2.85402 19.5274
rtibia 41.2836 0 0
rfoot -25.4881 -13.7457 0
rtoes -27.329 0 0
lowerback -6.97023 -4.96871 -4.21481
upperback -0.249635 -6.39307 2.24256
thorax 4.32001 -3.27852 4.01823
lowerneck -26.1076 -2.99724 -10.6129
upperneck 24.9737 -3.48154 11.4205
head 12.9332 -1.00744 5.53788
lclavicle 1.89002e-14 1.34683e-14 0
lhumerus -25.491 -21.6061 99.2845
lradius 32.2079 0 0
lwrist 3.91267 0 0
lhand -10.4826 -26.6542 0
lfingers 7.60478 0 0
lthumb 17.2434 4.66634 0
rclavicle 1.89002e-14 1.34683e-14 0
rhumerus -52.8506 1.88 -85.7297
rradius 28.8237 0 0
rwrist -11.6469 0 0
rhand -30.892 -24.8102 0
rfingers 7.60478 0 0
rthumb -2.45143 -56.7947 0
505
root 10.5243 16.9312 35.6717 6.26416 4.44937 3.34489
lfemur 24.0062 1.46506 -25.911
ltibia 1.89976 0 0
lfoot -11.2836 4.95171 0
ltoes -18.9275 0 0
rfemur -44.1492 2.89085 19.3766
rtibia 40.5953 0 0
rfoot -25.3808 -13.6933 0
rtoes -27.2055 0 0
lowerback -6.90717 -4.95674 -4.18752
upperback -0.261816 -6.37896 2.23331
thorax 4.27154 -3.27053 3.99493
lowerneck -25.8999 -2.9613 -10.5107
upperneck 24.7487 -3.43899 11.323
head 12.8198 -0.991528 5.49074
lclavicle 1.89162e-14 1.35017e-14 0
lhumerus -25.3772 -21.4539 98.503
lradius 32.0279 0 0
lwrist 3.94024 0 0
lhand -10.3467 -26.4423 0
lfingers 7.53834 0 0
lthumb 17.1355 4.60143 0
rclavicle 1.89162e-14 1.35017e-14 0
rhumerus -52.4848 1.74391 -84.8827
rradius 28.429 0 0
rwrist -11.4735 0 0
rhand -30.5953 -24.5138 0
rfingers 7.53834 0 0
rthumb -2.40418 -56.2193 0
506
root 10.4993 16.9099 35.7335 6.23005 4.43352 3.32281
lfemur 24.3116 1.42371 -25.6209
ltibia 1.53778 0 0
lfoot -11.1099 4.91876 0
ltoes -19.054 0 0
rfemur -43.967 2.92438 19.2224
rtibia 39.9174 0 0
rfoot -25.2647 -13.6359 0
rtoes -27.073 0 0
lowerback -6.84332 -4.94264 -4.15923
upperback -0.273283 -6.36205 2.22329
thorax 4.22303 -3.26115 3.97055
lowerneck -25.6879 -2.92544 -10.4076
upperneck 24.5208 -3.39658 11.2239
head 12.7048 -0.975829 5.44283
lclavicle 1.89211e-14 1.35262e-14 0
lhumerus -25.255 -21.2973 97.7047
lradius 31.839 0 0
lwrist 3.96439 0 0
lhand -10.2115 -26.226 0
lfingers 7.47093 0 0
lthumb 17.0234 4.53707 0
rclavicle 1.89211e-14 1.35262e-14 0
rhumerus -52.1078 1.61326 -84.0295
rradius 28.0374 0 0
rwrist -11.3021 0 0
rhand -30.296 -24.218 0
rfingers 7.47093 0 0
rthumb -2.35785 -55.6403 0
507
root 10.4734 16.888 35.7858 6.19416 4.41599 3.29998
lfemur 24.5879 1.38364 -25.3311
ltibia 1.19315 0 0
lfoot -10.9387 4.88471 0
ltoes -19.1634 0 0
rfemur -43.7692 2.95458 19.0651
rtibia 39.2511 0 0
rfoot -25.1403 -13.5737 0
rtoes -26.9321 0 0
lowerback -6.77884 -4.92648 -4.13003
upperback -0.284019 -6.34243 2.21253
thorax 4.17458 -3.25041 3.94517
lowerneck -25.4721 -2.88974 -10.3038
upperneck 24.2906 -3.35439 11.1234
head 12.5884 -0.960372 5.39428
lclavicle 1.89152e-14 1.35419e-14 0
lhumerus -25.1248 -21.1365 96.8917
lradius 31.6417 0 0
lwrist 3.98509 0 0
lhand -10.0773 -26.0059 0
lfingers 7.40271 0 0
lthumb 16.9074 4.47341 0
rclavicle 1.89152e-14 1.35419e-14 0
rhumerus -51.7205 1.48828 -83.172
rradius 27.6498 0 0
rwrist -11.1329 0 0
rhand -29.9948 -23.9235 0
rfingers 7.40271 0 0
rthumb -2.31252 -55.0592 0
508
root 10.4464 16.8657 35.8283 6.15659 4.39681 3.27644
lfemur 24.8349 1.34493 -25.042
ltibia 0.866461 0 0
lfoot -10.7703 4.84964 0
ltoes -19.2557 0 0
rfemur -43.5565 2.98142 18.9051
rtibia 38.5979 0 0
rfoot -25.008 -13.507 0
rtoes -26.783 0 0
lowerback -6.71388 -4.9083 -4.1
upperback -0.294009 -6.32015 2.20105
thorax 4.12632 -3.23834 3.91885
lowerneck -25.253 -2.85429 -10.1997
upperneck 24.0586 -3.31253 11.0219
head 12.4709 -0.945188 5.34519
lclavicle 1.88985e-14 1.35488e-14 0
lhumerus -24.9869 -20.9721 96.066
lradius 31.4366 0 0
lwrist 4.00234 0 0
lhand -9.94454 -25.7824 0
lfingers 7.33385 0 0
lthumb 16.7877 4.41056 0
rclavicle 1.88985e-14 1.35488e-14 0
rhumerus -51.3238 1.36919 -82.3122
rradius 27.2669 0 0
rwrist -10.9663 0 0
rhand -29.6922 -23.6309 0
rfingers 7.33385 0 0
rthumb -2.2683 -54.4774 0
509
root 10.4184 16.8428 35.8606 6.11743 4.37606 3.25227
lfemur 25.0522 1.30765 -24.7545
ltibia 0.558306 0 0
lfoot -10.6051 4.81364 0
ltoes -19.3308 0 0
rfemur -43.3295 3.00486 18.7429
rtibia 37.9591 0 0
rfoot -24.8679 -13.4358 0
rtoes -26.6261 0 0
lowerback -6.64858 -4.88817 -4.06919
upperback -0.303235 -6.29529 2.18889
thorax 4.07833 -3.225 3.89167
lowerneck -25.0313 -2.81915 -10.0953
upperneck 23.8254 -3.27107 10.9196
head 12.3526 -0.930311 5.29569
lclavicle 1.88712e-14 1.3547e-14 0
lhumerus -24.8417 -20.8044 95.2295
lradius 31.2241 0 0
lwrist 4.01613 0 0
lhand -9.8134 -25.5562 0
lfingers 7.26451 0 0
lthumb 16.6647 4.34868 0
rclavicle 1.88712e-14 1.3547e-14 0
rhumerus -50.9188 1.25621 -81.4521
rradius 26.8896 0 0
rwrist -10.8027 0 0
rhand -29.3891 -23.3408 0
rfingers 7.26451 0 0
rthumb -2.22526 -53.896 0
510
root 10.3894 16.8195 35.8826 6.07678 4.35378 3.22752
lfemur 25.2395 1.27188 -24.4691
ltibia 0.269286 0 0
lfoot -10.4436 4.7768 0
ltoes -19.3886 0 0
rfemur -43.0888 3.02487 18.5788
rtibia 37.3361 0 0
rfoot -24.7207 -13.3605 0
rtoes -26.4619 0 0
lowerback -6.58311 -4.86615 -4.0377
upperback -0.311681 -6.26792 2.17608
thorax 4.03074 -3.2104 3.86368
lowerneck -24.8073 -2.7844 -9.99098
upperneck 23.5915 -3.23011 10.8166
head 12.2338 -0.915771 5.24589
lclavicle 1.88334e-14 1.35365e-14 0
lhumerus -24.6896 -20.6338 94.3842
lradius 31.0048 0 0
lwrist 4.02644 0 0
lhand -9.6842 -25.3277 0
lfingers 7.19485 0 0
lthumb 16.5387 4.28789 0
rclavicle 1.88334e-14 1.35365e-14 0
rhumerus -50.5064 1.14956 -80.5936
rradius 26.5188 0 0
rwrist -10.6425 0 0
rhand -29.0862 -23.054 0
rfingers 7.19485 0 0
rthumb -2.1835 -53.3165 0
511
root 10.3593 16.7956 35.8937 6.03474 4.33003 3.20225
lfemur 25.3965 1.2377 -24.1865
ltibia 1.04958e-13 0 0
lfoot -10.2859 4.7392 0
ltoes -19.429 0 0
rfemur -42.8349 3.04142 18.4132
rtibia 36.7303 0 0
rfoot -24.5665 -13.2811 0
rtoes -26.2908 0 0
lowerback -6.51761 -4.84229 -4.0056
upperback -0.31933 -6.23812 2.16265
thorax 3.98365 -3.1946 3.83495
lowerneck -24.5817 -2.75013 -9.88697
upperneck 23.3574 -3.18975 10.7133
head 12.1148 -0.901602 5.1959
lclavicle 1.87852e-14 1.35174e-14 0
lhumerus -24.5309 -20.4608 93.532
lradius 30.7793 0 0
lwrist 4.03326 0 0
lhand -9.55723 -25.0975 0
lfingers 7.12502 0 0
lthumb 16.41 4.22834 0
rclavicle 1.87852e-14 1.35174e-14 0
rhumerus -50.0876 1.04947 -79.7386
rradius 26.1552 0 0
rwrist -10.486 0 0
rhand -28.784 -22.7711 0
rfingers 7.12502 0 0
rthumb -2.14311 -52.7401 0
512
root 10.3343 16.7972 36.0692 5.92933 4.00615 3.31556
lfemur 25.9796 1.50381 -24.1983
ltibia -3.49861e-14 0 0
lfoot -8.58159 5.03921 0
ltoes -18.7681 0 0
rfemur -42.4936 2.47688 18.9162
rtibia 37.416 0 0
rfoot -24.5665 -13.2811 0
rtoes -26.2908 0 0
lowerback -6.22489 -4.40596 -4.03786
upperback -0.376604 -5.66559 2.20103
thorax 3.70872 -2.90567 3.98582
lowerneck -24.6965 -3.33601 -11.321
upperneck 23.1127 -3.76078 11.8318
head 12.1746 -1.13945 5.78123
lclavicle 5.9039e-14 -1.11319e-14 0
lhumerus -25.6276 -21.2769 94.9039
lradius 30.0329 0 0
lwrist 6.31286 0 0
lhand -11.8153 -25.8721 0
lfingers 7.12502 0 0
lthumb 14.235 3.62008 0
rclavicle 5.9039e-14 -1.11319e-14 0
rhumerus -50.048 -0.161115 -78.5241
rradius 25.5241 0 0
rwrist -9.36239 0 0
rhand -30.1693 -21.2967 0
rfingers 7.12502 0 0
rthumb -3.48097 -51.248 0
513
root 10.3015 16.805 36.2325 6.23527 4.00298 2.96416
lfemur 26.0368 1.46058 -23.6767
ltibia 1.27222e-14 0 0
lfoot -6.55437 5.66393 0
ltoes -19.7855 0 0
rfemur -42.5158 2.31569 19.6542
rtibia 38.1053 0 0
rfoot -24.5665 -13.2811 0
rtoes -26.2908 0 0
lowerback -6.18574 -4.2084 -3.6263
upperback -0.747372 -5.43443 2.30549
thorax 3.24902 -2.77004 3.9098
lowerneck -24.1283 -3.57166 -11.8044
upperneck 23.2821 -3.97526 11.7884
head 12.1706 -1.30215 5.81179
lclavicle -1.09829e-14 4.77083e-15 0
lhumerus -26.7428 -20.1441 95.4139
lradius 28.9876 0 0
lwrist 5.14355 0 0
lhand -9.16164 -24.3747 0
lfingers 7.12502 0 0
lthumb 16.7908 4.91924 0
rclavicle -1.09829e-14 4.77083e-15 0
rhumerus -50.2411 -1.26837 -77.5921
rradius 24.8561 0 0
rwrist -7.64254 0 0
rhand -28.1594 -21.9079 0
rfingers 7.12502 0 0
rthumb -1.53984 -51.8821 0
514
root 10.2534 16.8192 36.3827 6.66529 4.15994 2.83567
lfemur 25.846 1.22982 -23.3253
ltibia -1.27222e-14 0 0
lfoot -4.25633 6.47465 0
ltoes -20.6446 0 0
rfemur -42.7997 2.55812 19.9022
rtibia 38.8218 0 0
rfoot -24.5665 -13.2811 0
rtoes -26.2908 0 0
lowerback -6.23811 -4.65184 -4.00237
upperback -1.24314 -6.01153 2.715
thorax 2.90353 -3.05029 4.49952
lowerneck -22.9054 -3.05545 -11.7349
upperneck 22.6413 -3.28358 11.5325
head 11.5774 -1.04241 5.76667
lclavicle -3.81667e-14 1.19271e-14 0
lhumerus -27.9434 -17.0215 95.4603
lradius 27.6427 0 0
lwrist 3.06031 0 0
lhand -13.5008 -27.3432 0
lfingers 7.12502 0 0
lthumb 12.6105 2.25617 0
rclavicle -3.81667e-14 1.19271e-14 0
rhumerus -50.1931 -0.332763 -77.3924
rradius 24.2099 0 0
rwrist -6.5237 0 0
rhand -27.5993 -23.1471 0
rfingers 7.12502 0 0
rthumb -0.998938 -53.1245 0
